<svg width="20" height="20" viewBox="0 0 20 20" fill="none" xmlns="http://www.w3.org/2000/svg">
<path d="M2.5 12.0834C2.5 13.234 3.43274 14.1667 4.58333 14.1667C5.73393 14.1667 6.66667 13.234 6.66667 12.0834V5.41671C6.66667 4.26611 5.73393 3.33337 4.58333 3.33337C3.43274 3.33337 2.5 4.26611 2.5 5.41671V12.0834Z" stroke="#00B761" stroke-width="1.5"/>
<path d="M9.64618 16.5084L7.7874 13.4879C7.28834 12.6769 7.03881 12.2714 6.88792 11.8271C6.8419 11.6915 6.80289 11.5537 6.77105 11.4142C6.66667 10.9566 6.66667 10.4805 6.66667 9.5283V6.66671C6.66667 4.82576 8.15905 3.33337 10 3.33337H12.4249C14.0031 3.33337 15.4458 4.22505 16.1516 5.63665L17.1087 7.55084C18.0542 9.44182 16.6792 11.6667 14.565 11.6667H13.9902C12.5494 11.6667 11.4476 12.951 11.6667 14.375L11.8692 15.6915C11.9818 16.4234 11.4156 17.0834 10.6751 17.0834C10.2556 17.0834 9.86606 16.8657 9.64618 16.5084Z" stroke="#00B761" stroke-width="1.5"/>
</svg>
