<svg width="18" height="16" viewBox="0 0 18 16" fill="none" xmlns="http://www.w3.org/2000/svg">
<path d="M1.5 6.33331C1.5 5.18272 2.43274 4.24998 3.58333 4.24998C4.73393 4.24998 5.66667 5.18272 5.66667 6.33331V13C5.66667 14.1506 4.73393 15.0833 3.58333 15.0833C2.43274 15.0833 1.5 14.1506 1.5 13V6.33331Z" stroke="#00B761" stroke-width="1.5"/>
<path d="M8.64618 1.90827L6.7874 4.92879C6.28834 5.73976 6.03881 6.14525 5.88792 6.5896C5.8419 6.72515 5.80289 6.86297 5.77105 7.00252C5.66667 7.46004 5.66667 7.93616 5.66667 8.88838V11.75C5.66667 13.5909 7.15905 15.0833 9 15.0833H11.4249C13.0031 15.0833 14.4458 14.1916 15.1516 12.78L16.1087 10.8658C17.0542 8.97487 15.6792 6.74998 13.565 6.74998H12.9902C11.5494 6.74998 10.4476 5.4657 10.6667 4.04165L10.8692 2.72517C10.9818 1.99332 10.4156 1.33331 9.67511 1.33331C9.25556 1.33331 8.86606 1.55097 8.64618 1.90827Z" stroke="#00B761" stroke-width="1.5"/>
</svg>
